<svg xmlns="http://www.w3.org/2000/svg" width="340" height="280" viewBox="0 0 340 280">
  <g id="Layer_2" data-name="Layer 2">
    <g id="box_transparency" data-name="box transparency">
      <rect width="340" height="280" fill="none"/>
    </g>
    <g id="Layer_3" data-name="Layer 3">
      <g>
        <polygon points="88.5 76 28.3 175.8 96.6 239 136.4 103.5 88.5 76" fill="#e0e4e9"/>
        <polygon points="201.6 83.1 205.6 207.4 96.6 239 136.4 103.5 201.6 83.1" fill="#97b3c6"/>
        <g opacity="0.8">
          <polygon points="201.6 83.1 205.6 207.4 307.5 233.9 264.7 96.3 201.6 83.1" fill="#97b3c6"/>
        </g>
        <polygon points="126.3 144.8 27.9 144.8 27.9 138.8 124.7 138.8 200.4 96.7 257 81.2 258.6 86.9 202.7 102.3 126.3 144.8" fill="#fff"/>
        <polygon points="311.7 214.5 202.3 174.3 115.6 166.2 55.7 98.2 60.2 94.3 118.5 160.5 203.6 168.4 204 168.5 313.8 208.9 311.7 214.5" fill="#fff"/>
        <polygon points="298.9 141.9 200.6 117.9 200.4 117.8 130 90.1 132.2 84.5 202.4 112.2 300.3 136 298.9 141.9" fill="#fff"/>
        <polygon points="112.9 190.3 24.1 189.4 24.2 183.4 111.8 184.3 203.6 149.9 299.2 167 298.1 172.9 204.2 156.1 112.9 190.3" fill="#fff"/>
        <path d="M94.3,257.5a4,4,0,0,1-2.9-1.2L8.6,178.5a4.3,4.3,0,0,1-.7-5.4L80.7,59a4.3,4.3,0,0,1,5.7-1.4l51.7,29.7a1.2,1.2,0,0,0,1,.1l7-2.2a4.4,4.4,0,0,1,4.1.9,1.7,1.7,0,0,0,1.2.5h1.1l.3.3c3.2,2.5,11.7,8.1,20.7,5a12.6,12.6,0,0,0,8-8.2,2.9,2.9,0,0,1,1.2-1.8,2.9,2.9,0,0,0,1-2.2,3.9,3.9,0,0,0-.9-2.9l-.4-.4V74l17.2-5.4a4.1,4.1,0,0,1,2.2,0l73.2,16.8a4.4,4.4,0,0,1,3.1,2.8l52,160.9a4.3,4.3,0,0,1-1,4.2,4.1,4.1,0,0,1-4.1,1.2L206,224.3h-.6l-109.9,33ZM84.3,60.1a1.6,1.6,0,0,0-1.1.5L10.5,174.7a1.2,1.2,0,0,0,.1,1.6l82.8,77.8c.4.3.8.5,1.2.3l109.9-32.9a3.3,3.3,0,0,1,2.2-.1l118.8,30.2a1.2,1.2,0,0,0,1.2-.3,1.2,1.2,0,0,0,.3-1.3L275,89.1a1.2,1.2,0,0,0-.9-.8L200.9,71.5h-.6L185.8,76a6.8,6.8,0,0,1,.9,4.2,6.3,6.3,0,0,1-2.1,4.2c-.1,0-.2.1-.3.5a15.3,15.3,0,0,1-9.8,10c-7.2,2.5-15.7.6-23.3-5.2h-.4a5.8,5.8,0,0,1-2.5-1.2,1.6,1.6,0,0,0-1.3-.3l-7,2.2a4.5,4.5,0,0,1-3.4-.4L84.9,60.2Z" fill="#97b3c6"/>
        <g id="prefix_mappin-fill-a" data-name="prefix  mappin-fill-a">
          <path d="M163.4,26A46.4,46.4,0,0,0,117,72.4c0,21.5,31.1,59.8,41.4,71,3.1,3.4,6.4,3.4,9.5,0,10.1-10.9,41.8-49.3,41.8-71A46.3,46.3,0,0,0,163.4,26" fill="#ff0080" fill-rule="evenodd"/>
          <path d="M163.1,147.4h0c-2,0-3.9-1-5.8-3a283.8,283.8,0,0,1-24.7-31.8C121.2,95.5,115.5,82,115.5,72.4a47.9,47.9,0,1,1,95.7,0c0,21.5-30.5,59.3-42.2,72C167.1,146.4,165.2,147.4,163.1,147.4Zm.3-119.9a44.9,44.9,0,0,0-44.9,44.9c0,20.7,30.4,58.4,41,70,1.3,1.3,2.5,2,3.6,2h0c1.2,0,2.4-.7,3.7-2,11.5-12.5,41.4-49.5,41.4-70A44.9,44.9,0,0,0,163.4,27.5Z" fill="#fff"/>
        </g>
        <g opacity="0.5">
          <g id="prefix_mappin-fill-a-2" data-name="prefix  mappin-fill-a">
            <path d="M163.4,26a46.3,46.3,0,0,1,46.3,46.4c0,21.7-31.7,60.1-41.8,71-1.5,1.6-3,2.5-4.5,2.5" fill="#cc008c" fill-rule="evenodd"/>
            <path d="M163.4,147.4v-3a5.1,5.1,0,0,0,3.5-2c11.5-12.5,41.4-49.5,41.4-70a44.9,44.9,0,0,0-44.8-44.9v-3a47.9,47.9,0,0,1,47.8,47.9c0,9.6-5.8,23.2-17.4,40.4A285.2,285.2,0,0,1,169,144.4C167.2,146.3,165.4,147.3,163.4,147.4Z" fill="#fff"/>
          </g>
        </g>
      </g>
      <path d="M163.4,86A13.7,13.7,0,1,1,177,72.3,13.7,13.7,0,0,1,163.4,86" fill="#fff" fill-rule="evenodd"/>
    </g>
  </g>
</svg>
